<svg width="122" height="186" viewBox="0 0 122 186" fill="none" xmlns="http://www.w3.org/2000/svg">
<path d="M32.3891 148.42H31.2727C18.8415 148.42 12.6259 148.42 8.68428 144.657C8.5317 144.512 8.38254 144.362 8.2369 144.21C4.47449 140.268 4.47449 134.053 4.47449 121.621V121.621" stroke="black" stroke-width="1.49518" stroke-linecap="round"/>
<path d="M87.3725 37.9016H88.4889C100.92 37.9016 107.136 37.9016 111.077 41.664C111.23 41.8097 111.379 41.9588 111.525 42.1114C115.287 46.0531 115.287 52.2686 115.287 64.6998V64.6998" stroke="black" stroke-width="1.49518" stroke-linecap="round"/>
<path d="M32.3891 37.9017H31.2727C18.8415 37.9017 12.6259 37.9017 8.68428 41.6641C8.5317 41.8098 8.38254 41.9589 8.2369 42.1115C4.47449 46.0532 4.47449 52.2688 4.47449 64.7V64.7" stroke="black" stroke-width="1.49518" stroke-linecap="round"/>
<path d="M87.3725 148.42H88.4889C100.92 148.42 107.136 148.42 111.077 144.657C111.23 144.512 111.379 144.362 111.525 144.21C115.287 140.268 115.287 134.053 115.287 121.621V121.621" stroke="black" stroke-width="1.49518" stroke-linecap="round"/>
<path d="M60 33.7798L60 61.7325" stroke="#D7DDE8" stroke-width="1.5" stroke-linecap="round" stroke-dasharray="5.29 5.29"/>
<path d="M60 123.66L60 151.612" stroke="#D7DDE8" stroke-width="1.5" stroke-linecap="round" stroke-dasharray="5.29 5.29"/>
<path d="M80.3294 78.4161C77.7128 68.9496 69.0539 62 58.7732 62C46.4208 62 36.4069 72.0327 36.4069 84.4083C36.4069 85.2229 36.4511 86.0273 36.5364 86.8187C28.2078 88.7534 22 96.2329 22 105.167C22 115.279 29.9552 123.528 39.9369 123.98H39.963C40.24 123.993 40.5181 124 40.7981 124C41.0781 124 41.3722 123.992 41.6572 123.98L74.7398 123.962C75.1734 123.986 75.611 124 76.0507 124C88.7252 124 99 113.706 99 101.007C99 89.7741 90.9585 80.4242 80.3294 78.4161Z" fill="#E5EEF7" stroke="#0077FF" stroke-width="1.5"/>
<path d="M59.7084 1.00012H57.0718C52.638 1.00012 50.4211 1.00012 48.7925 1.99812C47.8812 2.55655 47.115 3.32272 46.5566 4.234C45.5586 5.86258 45.5586 8.07951 45.5586 12.5134V26.6867C45.5586 31.1205 45.5586 33.3374 46.5566 34.966C47.115 35.8773 47.8812 36.6435 48.7925 37.2019C50.4211 38.1999 52.638 38.1999 57.0719 38.1999H64.4429C68.8767 38.1999 71.0937 38.1999 72.7223 37.2019C73.6335 36.6435 74.3997 35.8773 74.9581 34.966C75.9561 33.3374 75.9561 31.1205 75.9561 26.6867V17.2479C75.9561 15.3142 75.9561 14.3474 75.7019 13.4458C75.5573 12.9333 75.3528 12.4396 75.0926 11.975C74.6349 11.1577 73.9513 10.474 72.584 9.10676L67.8495 4.37228C66.4822 3.005 65.7986 2.32136 64.9813 1.86364C64.5166 1.60344 64.0229 1.39894 63.5104 1.25439C62.6088 1.00012 61.642 1.00012 59.7084 1.00012Z" fill="#F6F7F9" stroke="#0077FF" stroke-width="1.5"/>
<path d="M75.9433 14.3919V15.1419H76.7462L76.6916 14.3409L75.9433 14.3919ZM74.3374 10.86L73.807 11.3904V11.3904L74.3374 10.86ZM66.0961 2.61877L65.5658 3.1491L65.5658 3.1491L66.0961 2.61877ZM61.7148 1V0.25H60.9648V1H61.7148ZM63.0083 11.6002L62.4015 12.041L62.4015 12.041L63.0083 11.6002ZM64.5066 13.0985L64.9474 12.4917H64.9474L64.5066 13.0985ZM76.6916 14.3409C76.5887 12.8322 75.9437 11.4057 74.8677 10.3297L73.807 11.3904C74.6259 12.2092 75.1168 13.2948 75.1951 14.4429L76.6916 14.3409ZM74.8677 10.3297L66.6264 2.08844L65.5658 3.1491L73.807 11.3904L74.8677 10.3297ZM66.6264 2.08844C65.4493 0.911306 63.8528 0.25 62.1881 0.25V1.75C63.455 1.75 64.67 2.25327 65.5658 3.1491L66.6264 2.08844ZM62.1881 0.25H61.7148V1.75H62.1881V0.25ZM60.9648 1V2.20141H62.4648V1H60.9648ZM60.9648 2.20141C60.9648 4.72421 60.9638 6.67656 61.1309 8.21862C61.2995 9.77472 61.6464 11.0017 62.4015 12.041L63.615 11.1594C63.0767 10.4184 62.7769 9.48552 62.6222 8.05705C62.4659 6.61454 62.4648 4.75762 62.4648 2.20141H60.9648ZM62.4015 12.041C62.8655 12.6796 63.4271 13.2413 64.0657 13.7052L64.9474 12.4917C64.4361 12.1203 63.9865 11.6706 63.615 11.1594L62.4015 12.041ZM64.0657 13.7052C65.105 14.4603 66.332 14.8073 67.8881 14.9759C69.4302 15.1429 71.3826 15.1419 73.9054 15.1419V13.6419C71.3491 13.6419 69.4922 13.6409 68.0497 13.4846C66.6212 13.3298 65.6884 13.0301 64.9474 12.4917L64.0657 13.7052ZM73.9054 15.1419H75.9433V13.6419H73.9054V15.1419Z" fill="#0077FF"/>
<path d="M59.6186 147.98H56.982C52.5481 147.98 50.3312 147.98 48.7026 148.978C47.7914 149.537 47.0252 150.303 46.4667 151.214C45.4688 152.843 45.4688 155.06 45.4688 159.494V173.667C45.4688 178.101 45.4688 180.318 46.4667 181.946C47.0252 182.858 47.7914 183.624 48.7026 184.182C50.3312 185.18 52.5481 185.18 56.982 185.18H64.353C68.7869 185.18 71.0038 185.18 72.6324 184.182C73.5437 183.624 74.3099 182.858 74.8683 181.946C75.8663 180.318 75.8663 178.101 75.8663 173.667V164.228C75.8663 162.294 75.8663 161.328 75.612 160.426C75.4675 159.914 75.263 159.42 75.0028 158.955C74.5451 158.138 73.8614 157.454 72.4941 156.087L67.7597 151.353C66.3924 149.985 65.7087 149.302 64.8914 148.844C64.4268 148.584 63.9331 148.379 63.4206 148.235C62.519 147.98 61.5522 147.98 59.6186 147.98Z" fill="#F6F7F9" stroke="#0077FF" stroke-width="1.5"/>
<path d="M75.8535 161.372V162.122H76.6563L76.6017 161.321L75.8535 161.372ZM74.2475 157.84L73.7172 158.371V158.371L74.2475 157.84ZM66.0062 149.599L65.4759 150.129L65.4759 150.129L66.0062 149.599ZM61.625 147.98V147.23H60.875V147.98H61.625ZM62.9184 158.58L62.3117 159.021L62.3117 159.021L62.9184 158.58ZM64.4167 160.079L64.8576 159.472H64.8576L64.4167 160.079ZM76.6017 161.321C76.4989 159.812 75.8539 158.386 74.7778 157.31L73.7172 158.371C74.536 159.189 75.0269 160.275 75.1052 161.423L76.6017 161.321ZM74.7778 157.31L66.5366 149.069L65.4759 150.129L73.7172 158.371L74.7778 157.31ZM66.5366 149.069C65.3594 147.892 63.7629 147.23 62.0982 147.23V148.73C63.3651 148.73 64.5801 149.233 65.4759 150.129L66.5366 149.069ZM62.0982 147.23H61.625V148.73H62.0982V147.23ZM60.875 147.98V149.182H62.375V147.98H60.875ZM60.875 149.182C60.875 151.704 60.874 153.657 61.041 155.199C61.2096 156.755 61.5566 157.982 62.3117 159.021L63.5252 158.14C62.9869 157.399 62.6871 156.466 62.5323 155.037C62.376 153.595 62.375 151.738 62.375 149.182H60.875ZM62.3117 159.021C62.7757 159.66 63.3373 160.221 63.9759 160.685L64.8576 159.472C64.3463 159.1 63.8967 158.651 63.5252 158.14L62.3117 159.021ZM63.9759 160.685C65.0152 161.441 66.2422 161.787 67.7983 161.956C69.3404 162.123 71.2927 162.122 73.8155 162.122V160.622C71.2593 160.622 69.4024 160.621 67.9599 160.465C66.5314 160.31 65.5985 160.01 64.8576 159.472L63.9759 160.685ZM73.8155 162.122H75.8535V160.622H73.8155V162.122Z" fill="#0077FF"/>
</svg>
